<svg version="1.2" xmlns="http://www.w3.org/2000/svg" viewBox="0 0 100 100" width="100" height="100">
	<title>New Project</title>
	<style>
		.s0 { fill: #000000 } 
	</style>
	<path id="Layer" fill-rule="evenodd" class="s0" d="m74.8 73.9l1.6-6.2-1.1-1.2q-0.7-1.1-0.3-2c0.6-1.2 1.8-0.9 3-0.9 1.2 0 2.8-0.3 3.1 1.3 0.2 0.5 0 1-0.4 1.6l-1.1 1.2 1 3.7 6.4-5.6 3.3 0.1c-1.1-2.3-2.6-4.3-4.2-6.1 3.1 1.2 6.4 2.5 8.8 4 1.6 0.9 2.3 1.7 3 2.8 1.3 2.5 1.4 4.7 1.6 7.4l0.5 2.3h-18.1v0.1h-6.9c-0.2 1.6-1.1 2.5-2.9 2.6h-44.2c-1.8-0.1-2.7-1-2.9-2.6l0.6-9.8c0.2-2.3 0.8-4.1 1.9-5.4 0.7-0.9 1.5-1.6 2.4-2.1 3-1.7 9.9-2.2 12.6-4.6l4.2 12.1 2-7.2-1-1.1q-0.7-1-0.3-1.7c0.6-1.1 1.7-0.9 2.8-0.9 1.1 0 2.5-0.2 2.8 1.2 0.1 0.4 0 0.9-0.3 1.4l-1.1 1.1 2.1 7.2 3.7-12.1c2.7 2.4 9.7 2.9 12.6 4.6 1 0.5 1.8 1.2 2.5 2.1 1 1.3 1.7 3.1 1.8 5.4zm-62.3-13.4l2.7 8.1 1.4-4.8-0.7-0.7q-0.4-0.7-0.2-1.2c0.4-0.7 1.2-0.6 1.9-0.6 0.7 0 1.7-0.1 1.9 0.8 0.1 0.3 0 0.6-0.2 1l-0.7 0.7 1.4 4.8 2.5-8.1q0.5 0.5 1.4 0.9-0.3 0.6-0.5 1.3-0.7 1.8-0.8 4.1 0 0.1 0 0.1l-0.6 9.5h-20.1c-1.2-0.1-1.8-0.8-1.9-1.8l0.4-6c0.2-1.5 0.6-2.7 1.3-3.6 0.4-0.6 1-1.1 1.6-1.4 2-1.1 7.4-1.5 9.2-3.1zm12.4-12.3q0.6 0.2 0.8 0.7c0.3 0.5 0.2 1.3-0.3 2.4q0 0.1-0.1 0.1l-1.7 2.9c-0.7 1.1-1.4 2.2-2.3 3.1-1 0.9-2.2 1.5-3.8 1.5-1.6 0-2.7-0.6-3.6-1.4-1-0.9-1.6-1.9-2.3-3l-1.5-2.4q-0.9-1.3-0.9-2.3-0.1-0.5 0.1-0.9 0.2-0.4 0.6-0.6 0.2-0.2 0.4-0.2c-0.1-1.4-0.1-3 0-4.4q0-0.5 0.1-1c0.4-1.4 1.4-2.5 2.7-3.3q0.6-0.4 1.4-0.7c2.9-1 6.9-0.5 9 1.8 0.8 0.9 1.4 2.2 1.5 3.8zm-13.8 0.8q-0.4 0-0.6 0.2-0.1 0-0.2 0.2-0.1 0.1-0.1 0.3c0.1 0.5 0.3 1.1 0.8 1.8l1.5 2.5c0.6 0.9 1.3 1.9 2.1 2.7 0.7 0.7 1.6 1.1 2.9 1.1 1.3 0 2.2-0.5 3-1.2 0.9-0.8 1.5-1.8 2.1-2.9l1.8-2.8c0.3-0.8 0.4-1.3 0.3-1.5q-0.1-0.3-0.8-0.2-0.5 0.1-1-0.1l0.9-2.7c-3.2 0-5.3-0.5-7.9-2.2-0.9-0.5-1.1-1.1-2-1.1q-0.9 0.2-1.6 0.9-0.6 0.6-0.9 1.8l0.5 3.1q-0.4 0.3-0.8 0.1zm50-12.8q0.8 0.2 1.2 0.9c0.4 0.8 0.3 2-0.5 3.7q0 0 0 0.1l-2.7 4.3c-1 1.7-2 3.4-3.4 4.7-1.5 1.3-3.2 2.2-5.7 2.2-2.3 0-4-0.9-5.4-2.1-1.3-1.3-2.4-2.9-3.3-4.4l-2.3-3.7c-0.9-1.3-1.3-2.4-1.4-3.4q0-0.7 0.3-1.3 0.3-0.6 0.8-1 0.3-0.2 0.7-0.3c-0.2-1.9-0.2-4.4-0.1-6.4q0-0.8 0.2-1.5c0.6-2.1 2.1-3.8 3.9-5q1-0.6 2.1-1c4.5-1.6 10.3-0.7 13.5 2.7 1.3 1.4 2.1 3.2 2.2 5.6zm-20.6 1.2q-0.5 0.1-0.8 0.3-0.2 0.1-0.3 0.3-0.1 0.2-0.1 0.5c0 0.7 0.4 1.6 1.1 2.6l2.3 3.7c0.9 1.5 1.9 3 3.1 4 1.1 1.1 2.5 1.8 4.3 1.8 1.9 0 3.4-0.7 4.5-1.8 1.3-1.2 2.2-2.8 3.2-4.3l2.6-4.3c0.5-1.2 0.7-1.9 0.5-2.3-0.1-0.2-0.6-0.2-1.3-0.1q-0.1 0-0.2 0-0.5 0-1-0.3l1.1-3.9c-4.7 0-8-0.9-11.8-3.3-1.3-0.8-1.6-1.8-2.9-1.7q-1.4 0.3-2.4 1.3-0.9 1-1.4 2.7l0.8 4.7q-0.7 0.4-1.3 0.1zm27.2 10.1c0.8-5 2.7-8.7 5.9-10.7 2.1-1.4 3.4-1.5 5.9-1.5 2.1 0 3.5-0.1 5.3 1.1 6.1 4 8 13.4 5 19.8h-2.8q0.4-1.1 0.6-2.3c0.3-1.7 0.3-3.1-0.5-4.7-0.7-1.4-1.7-2.1-2.7-2.6 1.1 1.2 2.1 2.5 1.8 3.5q-2-2.3-4.2-4c-3.1-1.5-4.9-3.7-5.7-6.3-4.8 4.7-5.4 10.3-3.4 16.4h-1.7l-2.1 0.1c-1.7-2-1.6-6.3-1.4-8.8z"/>
</svg>