<svg version="1.2" xmlns="http://www.w3.org/2000/svg" viewBox="0 0 123 119" width="123" height="119">
	<title>change-password-icon-svg</title>
	<style>
		.s0 { fill: #19406d } 
	</style>
	<g id="Layer">
		<path id="Layer" fill-rule="evenodd" class="s0" d="m4.2 24c-2 0.2-3.9-1.2-4.2-3.2-0.2-2 1.2-3.8 3.2-4.1l22.7-3.2q0.1 0 0.3 0c2-0.1 3.7 1.5 3.8 3.5l0.9 23.4c0 2.1-1.5 3.8-3.6 3.8-2 0.1-3.7-1.5-3.7-3.5l-0.6-14.7c-1.8 2.2-3.4 4.4-5 7.2-5.2 9.4-7.5 20-6.6 30.4 0.9 10.1 4.8 20 11.7 28.2q3.8 4.5 8.1 7.9c9.8 7.9 21.3 11.8 32.8 11.7 11.5-0.2 22.9-4.2 32.5-12.3q4.2-3.5 7.9-8.1c5.6-7 9.2-15.1 10.6-23.7 1.3-8.5 0.5-17.4-2.7-26-3.1-8.3-7.8-15.7-14-21.4-5.7-5.4-12.7-9.4-20.8-11.3q-3.8-0.9-7.8-1.2-3.9-0.2-8.1 0.2c-2 0.2-3.8-1.2-4-3.2-0.3-2 1.2-3.8 3.2-4.1q4.8-0.5 9.4-0.2 4.6 0.3 9 1.4c9.4 2.3 17.5 6.8 24.1 13 7 6.6 12.3 14.9 15.8 24.3 3.7 9.8 4.6 19.9 3.1 29.6-1.6 9.9-5.7 19.2-12.1 27.1q-4.1 5.2-8.9 9.2c-10.9 9.2-24 13.8-37.2 14-13.1 0.1-26.2-4.3-37.4-13.3q-4.8-3.8-9.1-8.9c-7.9-9.5-12.4-20.8-13.4-32.3-1-11.8 1.5-23.9 7.5-34.5 1.7-2.9 3.3-5.3 5.1-7.5zm38.9 30.4h4.2v-8.7c0-4.7 1.9-9 5-12.1 3.1-3.1 7.4-5.1 12.1-5.1 4.7 0 9 2 12.1 5.1 3.1 3.1 5 7.4 5 12.1v8.7h3.3c0.8 0 1.4 0.6 1.4 1.3v28.2c0 0.8-0.6 1.4-1.4 1.4h-41.7c-0.7 0-1.3-0.6-1.3-1.4v-28.2c0-0.7 0.6-1.3 1.3-1.3zm31.8 0v-8.8c0-2.9-1.2-5.5-3.1-7.4-1.9-1.9-4.5-3.1-7.4-3.1-2.9 0-5.5 1.2-7.4 3.1-1.9 1.9-3.1 4.5-3.1 7.4v8.8zm-7.2 11.6c0-2.2-1.8-3.9-4-3.9-2.1 0-3.9 1.7-3.9 3.9 0 1.7 1.2 3.2 2.7 3.7l-1.7 9.9h5.8l-2.1-9.8c1.8-0.3 3.2-1.9 3.2-3.8z"/>
	</g>
</svg>