<svg version="1.2" xmlns="http://www.w3.org/2000/svg" viewBox="0 0 123 121" width="123" height="121">
	<title>download-file-icon-svg</title>
	<style>
		.s0 { fill: #ffffff } 
	</style>
	<path id="Layer" class="s0" d="m84.6 47c1.4-1.5 3.4-2.3 5.5-2.3 2.1 0 4.1 0.8 5.5 2.3 1.5 1.5 2.3 3.5 2.2 5.5 0 2.1-0.9 4.1-2.4 5.5l-29.3 28.9q-1.1 1-2.5 1.6-1.4 0.6-2.9 0.6-1.5 0-2.9-0.6-1.4-0.6-2.5-1.6l-28.9-28.5c-1.5-1.5-2.3-3.4-2.3-5.5 0-2 0.8-4 2.2-5.4 1.4-1.5 3.4-2.3 5.4-2.3 2.1-0.1 4.1 0.7 5.5 2.2l15.9 15.7 0.2-55.5c0-1.9 0.9-3.8 2.4-5.2 1.4-1.4 3.3-2.2 5.3-2.1 2 0 4 0.8 5.4 2.2 1.4 1.4 2.2 3.3 2.3 5.3l-0.2 55zm-84.5 66.5l0.1-30.2c-0.1-2.1 0.7-4.1 2.2-5.6 1.4-1.5 3.5-2.4 5.5-2.3 2.1 0 4.1 0.8 5.6 2.4 1.4 1.5 2.2 3.5 2.1 5.6l-0.1 22q46 0.1 91.9 0l0.1-22.1c0-2 0.9-4 2.3-5.4 1.5-1.5 3.4-2.3 5.5-2.2 2 0 4 0.8 5.4 2.3 1.5 1.4 2.3 3.4 2.2 5.4l-0.1 30h-0.1q0 1.5-0.6 2.9-0.6 1.3-1.7 2.3-1.1 1.1-2.4 1.6-1.4 0.6-2.9 0.6-53.7 0.1-107.4 0-1.5 0-2.8-0.6-1.4-0.5-2.5-1.5-1-1.1-1.7-2.4-0.6-1.4-0.6-2.8z"/>
</svg>