<svg version="1.2" xmlns="http://www.w3.org/2000/svg" viewBox="0 0 111 123" width="111" height="123">
	<title>edit-box-icon-svg</title>
	<style>
		.s0 { fill: #0ba3f7 } 
	</style>
	<g id="Layer">
		<path id="Layer" fill-rule="evenodd" class="s0" d="m48.5 116.3c1.8 0 3.2 1.5 3.2 3.3 0 1.8-1.4 3.3-3.2 3.3h-40.9c-2.1 0-4-0.9-5.4-2.3-1.3-1.3-2.2-3.2-2.2-5.3v-107.7c0-2.1 0.9-4 2.2-5.4 1.4-1.3 3.3-2.2 5.4-2.2h93.3c2.1 0 4 0.9 5.4 2.2 1.3 1.4 2.2 3.3 2.2 5.4v54c0 1.8-1.5 3.2-3.3 3.2-1.8 0-3.2-1.5-3.2-3.2v-54c0-0.3-0.1-0.6-0.3-0.8-0.2-0.2-0.5-0.3-0.8-0.3h-93.3c-0.3 0-0.6 0.1-0.8 0.3q-0.3 0.4-0.3 0.8v107.7c0 0.3 0.1 0.5 0.3 0.7 0.3 0.2 0.5 0.3 0.8 0.3zm-14.5-58.4c-0.6-1-0.2-4.1 1.1-5.2 3.8-2.2 9.1-1.5 12.7-4.1 0.2-0.3 0.5-0.8 0.7-1.3 0.3-0.7 0.7-1.6 0.8-2.1-0.8-1-1.5-2.1-2.1-3.1l-2.2-3.5c-0.8-1.2-1.3-2.3-1.3-3.2q0-0.7 0.2-1.2 0.3-0.5 0.8-0.9 0.2-0.1 0.5-0.2c-0.1-1.9-0.2-4.3-0.1-6.3q0.1-0.7 0.3-1.5c0.6-2 2-3.6 3.7-4.7 1-0.6 2-1.1 3.1-1.4 0.7-0.2-0.6-2.4 0.2-2.5 3.5-0.4 9.1 2.8 11.6 5.5 1.2 1.3 1.9 3 2.1 5.4l-0.1 5.7q0.9 0.2 1.1 1.2c0.2 0.7 0 1.6-0.6 3q0 0 0 0.1l-2.5 4.1c-0.9 1.5-1.9 3-3.1 4.2q0.2 0.3 0.3 0.5c0.5 0.7 1 1.5 1.7 2.1q0 0.1 0 0.1c2.9 2 9.9 2.5 12.6 4l0.2 0.1c1.3 1.1 1.8 4.1 1.1 5.2h-42.8zm76 28.5c0.5 0.5 0.8 1.1 0.8 1.8 0 0.7-0.2 1.3-0.7 1.8l-4.1 4.3-11.4-11 4.1-4.2q0.7-0.8 1.8-0.8 1 0 1.8 0.7zm-25.4 29.8q-2.3 0.7-4.5 1.4-2.3 0.8-4.5 1.5-5.3 1.8-5.9 1.9-0.6 0.2 0.7-4.9l2.8-10.9 17.8-18.1 11.4 10.9zm-52.8-20.8c-1.8 0-3.3-1.5-3.3-3.3 0-1.9 1.5-3.3 3.3-3.3h22.2c1.8 0 3.3 1.4 3.3 3.3 0 1.8-1.5 3.3-3.3 3.3zm0-20.7c-1.8 0-3.2-1.5-3.2-3.3 0-1.8 1.4-3.2 3.2-3.2h44.1c1.8 0 3.2 1.4 3.2 3.2 0 1.8-1.4 3.3-3.2 3.3z"/>
	</g>
</svg>