<svg version="1.2" xmlns="http://www.w3.org/2000/svg" viewBox="0 0 123 122" width="123" height="122">
	<title>male-icon-svg</title>
	<style>
		.s0 { fill: #ffffff } 
	</style>
	<g id="Layer">
		<path id="Layer" fill-rule="evenodd" class="s0" d="m0 121.4v-19.6c10.5-4.7 42.6-13.6 44.2-26.4 0.3-2.9-6.5-14-8.1-19.3-3.4-5.3-4.6-13.8-0.9-19.5 1.5-2.2 0.8-10.4 0.8-13.5 0-30.8 54-30.8 54 0 0 3.9-0.9 11 1.2 14.1 3.5 5.1 1.7 14.2-1.3 18.9-1.9 5.6-9.2 16.1-8.5 19.3 2.3 11.7 32.1 19.6 41.5 23.8v22.2z"/>
	</g>
</svg>