<svg version="1.2" xmlns="http://www.w3.org/2000/svg" viewBox="0 0 100 100" width="100" height="100">
	<title>New Project</title>
	<style>
		.s0 { fill: #000000 } 
	</style>
	<path id="Layer" fill-rule="evenodd" class="s0" d="m77.2 41.8l-27.3 28.6-15.1-14.1 1.6-2.2 11 10.3 0.2 0.1q0.3 0.3 0.8 0.5 0.5 0.2 1 0.2 0.5-0.1 1-0.3 0.5-0.2 0.8-0.6l0.9-1 4.2-4.6 18.6-19zm1.1 14.2v-5.5q0 0 0 0 0 0 0-0.1 0 0 0 0 0 0 0 0c0.1-2.5 1.8-3.3 4-2.6q0 0 0.1 0.1 0 0 0.1 0 0 0 0 0.1 0.1 0 0.1 0c5.6 4.4 10.8 8.7 16.3 13.1l0.1 0.1q0.3 0.2 0.5 0.5 0.2 0.3 0.3 0.6 0.2 0.4 0.2 0.7 0 0.4 0 0.8-0.1 0.3-0.3 0.6-0.1 0.2-0.3 0.5-0.2 0.3-0.4 0.5-0.2 0.2-0.5 0.4l-14.9 12.1c-2.7 2.1-5.4 1.7-5.4-2.1q0-2.6 0-5.2h-21.3l14-14.6zm-53.5-8.8c0 1.4 0.2 3 0 4.3q0 0.2 0 0.4 0 0.2 0 0.4-0.1 0.2-0.1 0.3-0.1 0.2-0.1 0.4-0.1 0.3-0.3 0.6-0.1 0.3-0.3 0.6-0.2 0.2-0.5 0.5-0.2 0.2-0.5 0.4-0.3 0.2-0.6 0.3-0.2 0.1-0.6 0.2-0.3 0.1-0.6 0.1-0.3 0-0.6 0-0.3 0-0.5 0-0.2-0.1-0.4-0.1-0.2-0.1-0.4-0.1-0.2-0.1-0.5-0.2 0 0-0.1 0 0 0-0.1 0 0-0.1-0.1-0.1 0 0-0.1 0 0-0.1-0.1-0.1 0 0-0.1-0.1 0 0-0.1 0 0 0 0-0.1c-2.7-2.1-5.5-4.3-8.3-6.6-2.6-2.1-5.2-4.2-8.1-6.5l-0.1-0.2q-0.3-0.1-0.5-0.4-0.2-0.2-0.3-0.4-0.2-0.2-0.3-0.5-0.2-0.3-0.3-0.5v-0.2q-0.1-0.2-0.2-0.5 0-0.2 0-0.5 0-0.2 0-0.5 0-0.3 0.1-0.5 0-0.2 0.1-0.4 0.1-0.3 0.2-0.5 0.1-0.2 0.2-0.4 0.2-0.2 0.3-0.4 0.1-0.1 0.3-0.3 0.1-0.2 0.3-0.3 0.1-0.2 0.3-0.3 0.1-0.2 0.3-0.3c5-3.8 10-8.2 15-12.1q0.4-0.4 0.9-0.6 0.4-0.3 0.9-0.5 0.5-0.2 1.1-0.3 0.5-0.2 1-0.2 0.2 0 0.4 0 0.3 0 0.5 0.1 0.2 0 0.4 0.1 0.2 0.1 0.4 0.1 0.1 0.1 0.3 0.2 0.2 0.2 0.4 0.3 0.2 0.1 0.3 0.3 0.2 0.1 0.3 0.3 0.3 0.4 0.5 0.8 0.2 0.4 0.3 0.9 0.1 0.4 0.2 0.9 0 0.5 0 0.9v3.6h20.3l-3 3.1h-18.9q-0.3 0-0.6-0.1-0.3-0.1-0.5-0.4-0.2-0.2-0.3-0.5-0.1-0.3-0.1-0.6c0-1.1 0-3.9 0-5.1q0-0.2 0-0.4 0-0.2-0.1-0.4 0-0.2-0.1-0.4-0.1-0.2-0.2-0.4 0 0 0 0-0.1 0-0.1 0 0-0.1 0-0.1 0 0-0.1 0 0 0 0 0-0.1 0-0.1-0.1-0.1 0-0.1 0 0 0-0.1 0-0.3 0.1-0.5 0.1-0.3 0.1-0.6 0.2-0.2 0.2-0.4 0.3-0.3 0.2-0.5 0.4l-14.9 12.1q-0.1 0-0.2 0.1-0.1 0.1-0.2 0.2-0.1 0-0.1 0.1-0.1 0.1-0.2 0.2 0 0-0.1 0.1 0 0.1 0 0.1-0.1 0.1-0.1 0.1 0 0.1 0 0.2 0 0 0 0.1 0 0 0 0.1 0 0 0 0.1 0 0 0 0v0.1q0 0.1 0.1 0.2 0 0.1 0.1 0.2 0 0.1 0.1 0.1 0.1 0.1 0.2 0.2c2.6 2 5.3 4.3 8.1 6.5 2.8 2.2 5.2 4.2 8.2 6.5q0 0 0.1 0.1 0.1 0 0.2 0 0.1 0 0.2 0 0.1 0 0.2 0 0.1 0.1 0.2 0.1 0.1-0.1 0.1-0.1 0.1 0 0.2 0 0.1 0 0.1-0.1 0.1 0 0.1-0.1 0.1 0 0.1-0.1 0.1 0 0.1-0.1 0-0.1 0-0.1 0.1-0.1 0.1-0.2 0-0.1 0-0.1 0-0.1 0-0.2 0-0.1 0.1-0.2v-5.7q0-0.3 0.1-0.5 0.1-0.3 0.3-0.5 0.2-0.2 0.5-0.4 0.3-0.1 0.6-0.1h8l-2.9 3-0.1 0.1zm51.6-12.8l-27.3 28.5-15.1-14 27.3-28.6zm-6.8 2.8q-0.5-0.5-0.7-1-0.3-0.6-0.3-1.2 0-0.6 0.2-1.1 0.2-0.6 0.6-1.1l-6-5.5q-0.4 0.4-0.9 0.7-0.6 0.2-1.2 0.3-0.6 0-1.2-0.2-0.5-0.2-1-0.6l-18.2 18.8q0.4 0.4 0.7 0.9 0.2 0.6 0.3 1.2 0 0.6-0.2 1.1-0.2 0.6-0.6 1.1l5.9 5.5q0.4-0.4 1-0.7 0.5-0.2 1.1-0.3 0.7 0 1.2 0.2 0.6 0.2 1 0.6l18.3-18.7zm-10.5 3.3c0.7 1.8 0.2 3.8-1.2 5.1-1.4 1.2-3.4 1.5-5.2 0.7-1.7-0.8-2.7-2.5-2.7-4.4 0.1-1.9 1.4-3.6 3.1-4.2q0.9-0.3 1.9-0.3 0.9 0 1.7 0.4 0.9 0.4 1.5 1.1 0.6 0.7 0.9 1.6z"/>
</svg>