<svg version="1.2" xmlns="http://www.w3.org/2000/svg" viewBox="0 0 123 123" width="123" height="123">
	<title>plus-line-icon-svg</title>
	<style>
		.s0 { fill: #ffffff } 
	</style>
	<g id="Layer">
		<path id="Layer" class="s0" d="m56.6 4.9q0-1 0.3-1.9 0.4-0.9 1.1-1.6c0.9-0.9 2.1-1.4 3.4-1.4q1 0 1.9 0.4 0 0 0 0 0.9 0.4 1.6 1c0.9 0.9 1.4 2.1 1.4 3.5q0 0 0 0.1v51.6h51.6q0.1 0 0.1 0 1 0 1.9 0.3 0 0.1 0 0.1 0.9 0.3 1.6 1c0.8 0.9 1.4 2.1 1.4 3.4q0 1-0.4 1.9-0.4 0.9-1 1.6-0.7 0.7-1.6 1-0.9 0.4-1.9 0.4 0 0-0.1 0h-51.6v51.6q0 0.1 0 0.1 0 1-0.4 1.9 0 0 0 0-0.4 0.9-1 1.6c-0.9 0.8-2.1 1.4-3.5 1.4q-0.9 0-1.8-0.4-0.9-0.4-1.6-1-0.7-0.7-1.1-1.6-0.3-0.9-0.3-1.9 0 0 0-0.1v-51.6h-51.6q-0.1 0-0.1 0-1 0-1.9-0.4-0.9-0.3-1.6-1-0.6-0.7-1-1.6-0.4-0.9-0.4-1.9 0-0.9 0.4-1.8 0.4-0.9 1-1.6c0.9-0.9 2.1-1.4 3.5-1.4q0 0 0.1 0h51.6v-51.6q0-0.1 0-0.1z"/>
	</g>
</svg>