<svg version="1.2" xmlns="http://www.w3.org/2000/svg" viewBox="0 0 112 123" width="112" height="123">
	<title>task-info-icon-svg</title>
	<style>
		.s0 { fill: #19406d } 
	</style>
	<path id="Layer" fill-rule="evenodd" class="s0" d="m56.8 113.6v-38.5c0-1.3 0.2-2.5 0.7-3.6 0.4-1.1 1.1-2.1 2-3 0.8-0.9 1.9-1.6 3-2 1.1-0.5 2.3-0.7 3.6-0.7h36.5c1.2 0 2.4 0.2 3.5 0.7 1.1 0.4 2.2 1.1 3 2 0.9 0.9 1.6 1.9 2.1 3 0.4 1.1 0.7 2.3 0.7 3.6v38.5c0 1.2-0.3 2.4-0.7 3.5-0.5 1.2-1.2 2.2-2.1 3-0.8 0.9-1.9 1.6-3 2.1-1.1 0.4-2.3 0.7-3.5 0.7h-36.5c-1.3 0-2.5-0.3-3.6-0.7-1.1-0.5-2.2-1.2-3-2.1-0.9-0.8-1.6-1.8-2-3-0.5-1.1-0.7-2.3-0.7-3.5zm33.2-55.8h-6.6v-21.4h-27.2q-0.6 0-1.2-0.3-0.6-0.2-1.1-0.7-0.5-0.5-0.7-1.1-0.3-0.6-0.3-1.2v-26.5h-46.4v99h38.9v6.5h-39.5q-0.6 0-1.2-0.1-0.5-0.1-1.1-0.3-0.5-0.3-1-0.6-0.5-0.3-0.9-0.7-0.4-0.4-0.7-0.9-0.3-0.5-0.6-1-0.2-0.5-0.3-1.1-0.1-0.6-0.1-1.1v-100.4q0-1.2 0.4-2.3 0.5-1.1 1.3-1.9 0.8-0.8 1.9-1.3 1.1-0.4 2.3-0.4h50.3q0.4 0 0.7 0.1 0.4 0.1 0.7 0.2 0.3 0.2 0.6 0.4 0.3 0.2 0.5 0.5l28.9 28.1q0.5 0.2 1 0.5 0.4 0.3 0.7 0.7 0.4 0.4 0.5 0.9 0.2 0.5 0.2 1.1zm-44.7 11.5v4.4h-24.6q-0.4 0-0.8-0.2-0.4-0.1-0.6-0.5-0.3-0.3-0.5-0.7-0.1-0.4-0.1-0.8 0-0.4 0.1-0.8 0.2-0.4 0.5-0.7 0.2-0.3 0.6-0.5 0.4-0.2 0.8-0.2zm0 15.8v4.5h-24.6q-0.4-0.1-0.8-0.2-0.3-0.2-0.6-0.5-0.3-0.3-0.4-0.7-0.2-0.4-0.2-0.9 0-0.4 0.2-0.8 0.1-0.4 0.4-0.7 0.3-0.3 0.6-0.5 0.4-0.1 0.8-0.2zm-1.8-47.5q0.4 0.1 0.8 0.2 0.4 0.2 0.7 0.5 0.2 0.3 0.4 0.7 0.1 0.4 0.1 0.8 0 0.5-0.1 0.9-0.2 0.4-0.5 0.7-0.2 0.3-0.6 0.5-0.4 0.1-0.8 0.2h-22.7q-0.5-0.1-0.8-0.2-0.4-0.2-0.7-0.5-0.3-0.3-0.4-0.7-0.2-0.4-0.1-0.9-0.1-0.4 0.1-0.8 0.1-0.4 0.4-0.7 0.3-0.3 0.7-0.5 0.3-0.1 0.8-0.2zm-10.3-15.8q0.4 0 0.8 0.2 0.4 0.2 0.7 0.5 0.3 0.3 0.4 0.7 0.2 0.4 0.1 0.8 0 0.4-0.1 0.8-0.1 0.4-0.4 0.7-0.3 0.3-0.7 0.5-0.4 0.2-0.8 0.2h-12.5q-0.4 0-0.8-0.2-0.4-0.1-0.6-0.5-0.3-0.3-0.5-0.7-0.1-0.4-0.1-0.8 0-0.4 0.2-0.8 0.1-0.4 0.4-0.7 0.3-0.3 0.6-0.5 0.4-0.2 0.8-0.2zm26 31.7q0.4 0 0.8 0.2 0.4 0.2 0.6 0.5 0.3 0.3 0.5 0.7 0.1 0.4 0.1 0.8 0 0.4-0.2 0.8-0.1 0.4-0.4 0.7-0.3 0.3-0.6 0.5-0.4 0.2-0.8 0.2h-38.5q-0.4 0-0.8-0.2-0.3-0.2-0.6-0.5-0.3-0.3-0.5-0.7-0.1-0.4-0.1-0.8 0-0.4 0.2-0.8 0.1-0.4 0.4-0.7 0.3-0.3 0.6-0.5 0.4-0.2 0.8-0.2zm0.4-23.7h19.6l-19.6-18.4zm31.4 81v-19.7c-5.8 1.5-13.7-1.3-13.7 3h3.2v16.7zm-3.8-32.9q-0.6-0.1-1.2 0-0.6 0.1-1.2 0.3-0.6 0.2-1.1 0.5-0.6 0.4-1.1 0.8-0.4 0.3-0.8 0.7-0.3 0.4-0.6 0.9-0.2 0.5-0.3 1.1-0.2 0.5-0.2 1.1 0 0.4 0.1 0.8 0.1 0.3 0.2 0.7 0.2 0.4 0.4 0.7 0.2 0.3 0.5 0.6 0.3 0.3 0.7 0.5 0.3 0.2 0.7 0.3 0.4 0.2 0.9 0.2 0.4 0.1 0.8 0.1 0.6 0 1.2-0.1 0.6-0.1 1.2-0.3 0.6-0.2 1.1-0.5 0.5-0.3 1-0.7 0.4-0.3 0.8-0.7 0.3-0.4 0.6-0.8 0.2-0.5 0.4-1 0.1-0.5 0.1-1 0.1-0.9-0.2-1.7-0.3-0.8-0.9-1.4-0.6-0.6-1.4-0.9-0.8-0.3-1.7-0.2z"/>
</svg>