<svg version="1.2" xmlns="http://www.w3.org/2000/svg" viewBox="0 0 100 100" width="100" height="100">
	<title>New Project</title>
	<style>
		.s0 { fill: #000000 } 
	</style>
	<path id="Layer" fill-rule="evenodd" class="s0" d="m16.9 32.3c1.9 0 3.5 1.6 3.5 3.5 0 1.9-1.6 3.5-3.5 3.5h-4.9c-5.8 0-9.5-3.3-11.1-7.6-0.6-1.5-0.9-3.2-0.9-4.9 0-1.6 0.3-3.3 0.9-4.9 1.6-4.2 5.3-7.4 11.1-7.4h76c5.8 0 9.5 3.2 11.1 7.5 0.6 1.5 0.9 3.2 0.9 4.9 0 1.6-0.3 3.3-0.9 4.9-1.6 4.2-5.3 7.5-11.1 7.5h-6.3c-2 0-3.5-1.6-3.5-3.5 0-1.9 1.5-3.5 3.5-3.5h6.3c2.4 0 3.9-1.3 4.6-3.1 0.3-0.7 0.4-1.5 0.4-2.3 0-0.9-0.1-1.7-0.4-2.4-0.6-1.7-2.2-3-4.6-3h-14.3v38.4h-47.4v-38.4h-14.3c-2.4 0-4 1.3-4.6 3-0.3 0.7-0.4 1.5-0.4 2.3 0 0.9 0.1 1.7 0.4 2.4 0.7 1.8 2.2 3.1 4.6 3.1zm38.7 31v7.6h5.2q1.3 0.1 1.9 0.9c1 1.4-0.4 2.9-1.3 3.9-2.6 2.8-8.5 8-9.7 9.5-1 1.1-2.4 1.1-3.4 0-1.3-1.6-7.5-7-10-9.8-0.8-1-1.9-2.3-1-3.6q0.5-0.8 1.8-0.9h5.2v-7.6zm10.8-41.8h-32.7v23.1c3.9 0 7 3.1 7 7h18.7c0-3.9 3.2-7 7-7zm-16.4 18.8c-4.7 0-8.5-3.8-8.5-8.5 0-4.6 3.8-8.4 8.5-8.4 4.6 0 8.4 3.8 8.4 8.4 0 4.7-3.8 8.5-8.4 8.5z"/>
</svg>